<?xml version="1.0" encoding="UTF-8"?>
<svg id="Ebene_1" data-name="Ebene 1" xmlns="http://www.w3.org/2000/svg" viewBox="0 0 804.52 266.11">
  <defs>
    <style>
      .cls-1 {
        fill: #1d1d1b;
      }
    </style>
  </defs>
  <g>
    <g>
      <path class="cls-1" d="M67.74,244.68c3.31,0,5.86.82,7.65,2.47,1.79,1.64,2.68,4.15,2.68,7.52,0,1.76-.2,3.32-.6,4.68-.4,1.36-1.02,2.51-1.87,3.44-.84.93-1.92,1.64-3.22,2.13-1.31.49-2.85.73-4.64.73h-7.38v-20.96h7.38ZM67.98,263.29c.32,0,.72-.02,1.2-.07.48-.05.99-.17,1.54-.35.54-.19,1.08-.46,1.61-.81.53-.35,1.01-.83,1.43-1.44.42-.61.77-1.37,1.04-2.28.27-.91.41-2.01.41-3.3s-.13-2.37-.38-3.36c-.25-.99-.66-1.83-1.23-2.52-.57-.69-1.31-1.22-2.21-1.59-.9-.36-2.02-.54-3.34-.54h-4.82v16.26h4.76Z"/>
      <path class="cls-1" d="M107.89,244.68v2.35h-11.99v6.66h11.17v2.35h-11.17v7.25h12.08v2.35h-14.94v-20.96h14.85Z"/>
      <path class="cls-1" d="M133.69,247.54c-.95-.68-2.17-1.01-3.66-1.01-.6,0-1.19.06-1.78.18-.58.12-1.1.31-1.55.59s-.81.64-1.08,1.1c-.27.46-.41,1.03-.41,1.72,0,.65.2,1.17.59,1.57.39.4.91.73,1.57.98.65.25,1.39.46,2.21.63.82.17,1.66.35,2.52.54.85.2,1.69.43,2.52.69.82.26,1.56.62,2.21,1.07.65.45,1.17,1.02,1.57,1.7.39.69.59,1.55.59,2.58,0,1.12-.26,2.07-.77,2.86-.51.79-1.17,1.44-1.97,1.94-.8.5-1.7.86-2.7,1.09s-1.98.34-2.97.34c-1.2,0-2.34-.15-3.42-.44-1.07-.29-2.02-.74-2.83-1.34s-1.46-1.36-1.93-2.29c-.47-.93-.71-2.03-.71-3.3h2.71c0,.88.18,1.64.53,2.28.35.64.81,1.16,1.39,1.57.57.41,1.24.71,2,.91.76.2,1.55.29,2.35.29.64,0,1.29-.06,1.94-.18.65-.12,1.24-.32,1.76-.6.52-.28.94-.67,1.27-1.16.32-.49.48-1.12.48-1.88,0-.72-.2-1.31-.59-1.76s-.91-.82-1.57-1.1c-.65-.28-1.39-.51-2.21-.69-.82-.18-1.66-.36-2.52-.54-.85-.19-1.69-.4-2.52-.65-.82-.24-1.56-.57-2.21-.97-.65-.4-1.17-.92-1.57-1.56-.39-.64-.59-1.43-.59-2.39,0-1.06.22-1.97.66-2.74.44-.77,1.03-1.41,1.76-1.91.73-.5,1.57-.87,2.5-1.12.93-.24,1.89-.37,2.88-.37,1.1,0,2.13.13,3.07.38.94.25,1.77.66,2.48,1.2.71.55,1.27,1.24,1.69,2.07.41.83.64,1.83.68,2.98h-2.71c-.16-1.51-.72-2.6-1.67-3.27Z"/>
      <path class="cls-1" d="M156.9,244.68v20.96h-2.86v-20.96h2.86Z"/>
      <path class="cls-1" d="M186.14,265.39c-1.25.48-2.5.72-3.77.72-1.61,0-3.04-.29-4.31-.87s-2.34-1.36-3.22-2.33c-.88-.98-1.56-2.1-2.02-3.38-.46-1.27-.69-2.59-.69-3.96,0-1.53.22-2.98.65-4.36.43-1.38,1.07-2.59,1.93-3.63.85-1.04,1.92-1.86,3.19-2.48,1.27-.62,2.77-.92,4.47-.92,1.16,0,2.26.13,3.3.4,1.03.26,1.96.68,2.77,1.25.81.57,1.5,1.29,2.05,2.16.55.87.93,1.92,1.13,3.16h-2.86c-.14-.8-.4-1.49-.78-2.07-.38-.58-.85-1.05-1.42-1.42-.56-.37-1.2-.65-1.91-.84-.71-.19-1.47-.28-2.27-.28-1.31,0-2.42.25-3.36.76-.93.51-1.7,1.18-2.29,2.01-.59.83-1.03,1.78-1.31,2.85-.28,1.07-.42,2.16-.42,3.27s.16,2.15.48,3.16c.32,1.01.79,1.9,1.42,2.67.62.77,1.39,1.39,2.3,1.85.91.46,1.97.69,3.18.69,1.12,0,2.12-.18,2.98-.53.86-.35,1.59-.84,2.18-1.45.59-.62,1.04-1.34,1.34-2.17.3-.83.43-1.73.39-2.69h-6.87v-2.35h9.43v11.04h-1.81l-.75-2.61c-.84,1.1-1.89,1.88-3.13,2.36Z"/>
      <path class="cls-1" d="M210.54,244.68l11.33,17h.06v-17h2.71v20.96h-3.13l-11.24-16.82h-.06v16.82h-2.71v-20.96h3.04Z"/>
    </g>
    <g>
      <path class="cls-1" d="M275.25,264.07c-1.47,1.34-3.55,2.01-6.27,2.01s-4.94-.64-6.49-1.92c-1.56-1.28-2.33-3.32-2.33-6.12v-13.39h2.86v13.39c0,1.88.51,3.3,1.54,4.27,1.02.97,2.5,1.45,4.43,1.45,1.83,0,3.22-.48,4.17-1.45.95-.97,1.43-2.39,1.43-4.27v-13.39h2.86v13.39c0,2.68-.73,4.69-2.2,6.03Z"/>
      <path class="cls-1" d="M296.51,244.65l11.33,17h.06v-17h2.71v20.96h-3.13l-11.24-16.82h-.06v16.82h-2.71v-20.96h3.04Z"/>
      <path class="cls-1" d="M334.1,244.65c3.31,0,5.86.82,7.65,2.47,1.79,1.64,2.68,4.15,2.68,7.52,0,1.76-.2,3.32-.6,4.68-.4,1.36-1.02,2.51-1.87,3.44-.84.93-1.92,1.64-3.22,2.13-1.31.49-2.85.73-4.64.73h-7.38v-20.96h7.38ZM334.34,263.27c.32,0,.72-.02,1.2-.07.48-.05.99-.17,1.54-.35.54-.19,1.08-.46,1.61-.81.53-.35,1.01-.83,1.43-1.44.42-.61.77-1.37,1.04-2.28.27-.91.41-2.01.41-3.3s-.13-2.37-.38-3.36c-.25-.99-.66-1.83-1.24-2.52-.57-.69-1.31-1.22-2.21-1.59-.9-.36-2.02-.54-3.34-.54h-4.82v16.26h4.76Z"/>
    </g>
    <g>
      <path class="cls-1" d="M382.98,244.68v10.45l10.9-10.45h3.7l-9.07,8.46,9.43,12.51h-3.61l-7.77-10.6-3.58,3.26v7.34h-2.86v-20.96h2.86Z"/>
      <path class="cls-1" d="M421.8,244.68c2.05,0,3.65.49,4.8,1.47,1.15.98,1.73,2.32,1.73,4.02,0,1.27-.3,2.39-.89,3.35-.59.96-1.54,1.61-2.85,1.97v.06c.62.12,1.13.31,1.52.59s.7.6.93.98c.23.38.4.81.51,1.28.11.47.2.96.26,1.47.04.51.07,1.03.09,1.56.02.53.07,1.05.15,1.56.08.51.2.99.35,1.45.15.46.38.87.68,1.22h-3.19c-.2-.22-.34-.51-.41-.88-.07-.37-.12-.79-.14-1.25-.02-.46-.04-.95-.06-1.48-.02-.53-.08-1.05-.18-1.56-.08-.51-.18-.99-.3-1.45-.12-.46-.31-.86-.57-1.2-.26-.34-.6-.62-1.02-.82-.42-.21-.98-.31-1.69-.31h-6.99v8.95h-2.86v-20.96h10.12ZM422.41,254.19c.6-.1,1.13-.29,1.58-.57s.81-.66,1.08-1.14c.27-.48.41-1.1.41-1.86,0-1.06-.3-1.92-.9-2.58s-1.58-1-2.92-1h-7.11v7.31h5.96c.66,0,1.3-.05,1.9-.15Z"/>
      <path class="cls-1" d="M458.64,244.68v2.35h-11.99v6.66h11.17v2.35h-11.17v7.25h12.08v2.35h-14.94v-20.96h14.85Z"/>
      <path class="cls-1" d="M482.68,244.68l8.4,20.96h-3.16l-2.35-6.31h-9.1l-2.41,6.31h-2.92l8.37-20.96h3.16ZM484.67,256.98l-3.58-9.78h-.06l-3.64,9.78h7.29Z"/>
      <path class="cls-1" d="M499.61,247.03v-2.35h17.2v2.35h-7.17v18.61h-2.86v-18.61h-7.17Z"/>
      <path class="cls-1" d="M533.64,244.68v20.96h-2.86v-20.96h2.86Z"/>
      <path class="cls-1" d="M555.15,265.64l-7.56-20.96h3.07l6.14,18.17h.06l6.2-18.17h2.98l-7.65,20.96h-3.25Z"/>
      <path class="cls-1" d="M590.59,247.54c-.95-.68-2.17-1.01-3.66-1.01-.6,0-1.19.06-1.78.18-.58.12-1.1.31-1.55.59-.45.27-.81.64-1.08,1.1-.27.46-.41,1.03-.41,1.72,0,.65.2,1.17.59,1.57.39.4.91.73,1.57.98.65.25,1.39.47,2.21.63.82.17,1.66.35,2.52.54.85.2,1.69.43,2.52.69.82.26,1.56.62,2.21,1.07.65.45,1.17,1.02,1.57,1.7.39.69.59,1.55.59,2.58,0,1.12-.26,2.07-.77,2.86-.51.79-1.17,1.44-1.97,1.94-.8.5-1.7.86-2.7,1.09-.99.22-1.98.34-2.97.34-1.2,0-2.34-.15-3.42-.44-1.07-.29-2.02-.74-2.83-1.34-.81-.6-1.46-1.36-1.93-2.29-.47-.93-.71-2.03-.71-3.3h2.71c0,.88.18,1.64.53,2.28.35.64.81,1.16,1.39,1.57s1.24.71,2,.91c.76.2,1.55.29,2.35.29.64,0,1.29-.06,1.94-.18.65-.12,1.24-.32,1.76-.6.52-.28.94-.67,1.27-1.16.32-.49.48-1.12.48-1.88,0-.72-.2-1.31-.59-1.76-.39-.45-.91-.82-1.57-1.1-.65-.28-1.39-.51-2.21-.69-.82-.18-1.66-.36-2.52-.54-.85-.19-1.69-.4-2.52-.65-.82-.24-1.56-.57-2.21-.97-.65-.4-1.17-.92-1.57-1.56-.39-.64-.59-1.43-.59-2.39,0-1.06.22-1.97.66-2.74.44-.77,1.03-1.41,1.76-1.91.73-.5,1.57-.87,2.5-1.12.93-.24,1.89-.37,2.88-.37,1.1,0,2.13.13,3.07.38.94.25,1.77.66,2.48,1.2.71.55,1.27,1.24,1.69,2.07.41.83.64,1.82.68,2.98h-2.71c-.16-1.51-.72-2.6-1.67-3.27Z"/>
      <path class="cls-1" d="M608.52,247.03v-2.35h17.2v2.35h-7.17v18.61h-2.86v-18.61h-7.17Z"/>
      <path class="cls-1" d="M654.55,264.1c-1.47,1.34-3.55,2.01-6.27,2.01s-4.94-.64-6.49-1.92c-1.56-1.28-2.33-3.32-2.33-6.12v-13.39h2.86v13.39c0,1.88.51,3.3,1.54,4.27,1.02.97,2.5,1.45,4.43,1.45,1.83,0,3.22-.48,4.17-1.45.95-.97,1.43-2.39,1.43-4.27v-13.39h2.86v13.39c0,2.68-.73,4.69-2.2,6.03Z"/>
      <path class="cls-1" d="M680.18,244.68c3.31,0,5.86.82,7.65,2.47,1.79,1.64,2.68,4.15,2.68,7.52,0,1.76-.2,3.32-.6,4.68-.4,1.36-1.02,2.51-1.87,3.44-.84.93-1.92,1.64-3.22,2.13-1.31.49-2.85.73-4.64.73h-7.38v-20.96h7.38ZM680.42,263.29c.32,0,.72-.02,1.2-.07.48-.05.99-.17,1.54-.35.54-.19,1.08-.45,1.61-.81.53-.35,1.01-.83,1.43-1.44.42-.61.77-1.37,1.04-2.28s.41-2.01.41-3.3-.13-2.37-.38-3.36c-.25-.99-.66-1.83-1.24-2.53-.57-.69-1.31-1.22-2.21-1.58-.9-.36-2.02-.54-3.34-.54h-4.82v16.26h4.76Z"/>
      <path class="cls-1" d="M708.46,244.68v20.96h-2.86v-20.96h2.86Z"/>
      <path class="cls-1" d="M724.2,251.04c.43-1.32,1.08-2.49,1.94-3.51.86-1.02,1.94-1.83,3.22-2.44,1.28-.61,2.78-.91,4.49-.91s3.2.3,4.49.91c1.28.61,2.36,1.42,3.22,2.44.86,1.02,1.51,2.19,1.94,3.51.43,1.32.65,2.7.65,4.13s-.22,2.8-.65,4.12c-.43,1.32-1.08,2.49-1.94,3.51-.86,1.02-1.94,1.82-3.22,2.42-1.29.6-2.78.89-4.49.89s-3.2-.3-4.49-.89c-1.29-.6-2.36-1.4-3.22-2.42-.86-1.02-1.51-2.19-1.94-3.51-.43-1.32-.65-2.7-.65-4.12s.22-2.8.65-4.13ZM726.84,258.29c.28,1.03.72,1.95,1.33,2.77.6.82,1.38,1.48,2.32,1.98.94.5,2.07.75,3.37.75s2.43-.25,3.37-.75c.94-.5,1.72-1.16,2.32-1.98.6-.82,1.04-1.75,1.33-2.77.28-1.03.42-2.07.42-3.13s-.14-2.1-.42-3.13c-.28-1.03-.72-1.95-1.33-2.77-.6-.82-1.38-1.48-2.32-1.98-.94-.5-2.07-.75-3.37-.75s-2.43.25-3.37.75c-.94.5-1.72,1.16-2.32,1.98-.6.82-1.04,1.75-1.33,2.77-.28,1.03-.42,2.07-.42,3.13s.14,2.1.42,3.13Z"/>
    </g>
  </g>
  <path class="cls-1" d="M787.49,17.02v164.5H17.02V17.02h770.47M804.52,0H0v198.54h804.52V0h0Z"/>
  <g>
    <path class="cls-1" d="M170.11,64.21v88.78h-28.93v-61.69h-51.89v61.69h-28.93V45.54h28.93v18.68h80.82Z"/>
    <path class="cls-1" d="M311.1,46v107h-120.62V46h120.62ZM282.17,73.09h-62.76v52.81h62.76v-52.81Z"/>
    <path class="cls-1" d="M440.45,45.84v26.79h-78.99v80.37h-28.93V45.84h107.92Z"/>
    <path class="cls-1" d="M565.97,94.06v58.93h-113.43v-28.01h84.5v-7.81l-83.58-12.4v-58.78h111.9v27.09h-82.97v8.73l83.58,12.25Z"/>
    <path class="cls-1" d="M706.96,125.9v27.09h-120.62V45.69h28.93v18.52h69.8v27.09h-69.8v34.6h91.69Z"/>
    <path class="cls-1" d="M717.09,153v-27.07h27.07v27.07h-27.07Z"/>
  </g>
</svg>